<svg xmlns="http://www.w3.org/2000/svg" xmlns:xlink="http://www.w3.org/1999/xlink" width="1000" zoomAndPan="magnify" viewBox="0 0 750 156.749997" height="209" preserveAspectRatio="xMidYMid meet" version="1.0"><defs><clipPath id="a7eaf8686e"><path d="M 1 0 L 158 0 L 158 155.003906 L 1 155.003906 Z M 1 0 " clip-rule="nonzero"/></clipPath><clipPath id="fe7f6bfdd1"><path d="M 154 0 L 310 0 L 310 155.003906 L 154 155.003906 Z M 154 0 " clip-rule="nonzero"/></clipPath><clipPath id="8927de9de7"><path d="M 656 92 L 703 92 L 703 155.003906 L 656 155.003906 Z M 656 92 " clip-rule="nonzero"/></clipPath><clipPath id="4e4a9ec989"><path d="M 702 92 L 749 92 L 749 155.003906 L 702 155.003906 Z M 702 92 " clip-rule="nonzero"/></clipPath></defs><g clip-path="url(#a7eaf8686e)"><path fill="#ffffff" d="M 112.589844 -0.648438 L 157.644531 -0.648438 C 145.859375 51.238281 133.980469 103.101562 122.121094 154.96875 C 81.851562 154.933594 41.578125 155.046875 1.308594 155.015625 C 7.082031 144.726562 12.210938 134.09375 17.773438 123.699219 C 39.953125 123.804688 62.132812 123.722656 84.3125 123.738281 C 93.75 82.285156 103.078125 40.792969 112.589844 -0.648438 Z M 112.589844 -0.648438 " fill-opacity="1" fill-rule="nonzero"/></g><g clip-path="url(#fe7f6bfdd1)"><path fill="#ffffff" d="M 180.601562 -0.648438 L 280.980469 -0.648438 C 273.074219 13.625 265.269531 27.957031 257.316406 42.214844 C 257.332031 38.417969 258.089844 34.613281 257.566406 30.839844 C 256.792969 26.503906 253.003906 23.472656 249.082031 21.976562 C 241.996094 19.273438 233.5 19.316406 226.992188 23.53125 C 218.066406 28.96875 214.113281 41.277344 218.640625 50.789062 C 222.84375 59.128906 229.101562 66.214844 235.542969 72.894531 C 243.324219 80.75 251.625 88.09375 260.425781 94.789062 C 261.78125 93.132812 262.804688 91.246094 263.472656 89.21875 C 265.652344 82.867188 267.03125 76.269531 268.300781 69.6875 C 278.671875 72.640625 289.035156 75.625 299.40625 78.59375 C 297.453125 94.175781 291.296875 109.054688 282.664062 122.105469 C 291.621094 133.046875 300.613281 143.960938 309.5625 154.910156 C 295.957031 154.941406 282.359375 154.894531 268.757812 154.933594 C 265.816406 151.871094 262.992188 148.695312 260.050781 145.640625 C 246.363281 152.003906 231.273438 155.121094 216.230469 155.605469 C 198.792969 155.859375 180.625 151.886719 166.457031 141.304688 C 158.460938 133.457031 153.734375 121.894531 155.164062 110.632812 C 156.265625 101.601562 160.691406 93.328125 166.164062 86.199219 C 173.285156 77.050781 182.152344 69.34375 191.789062 62.941406 C 181.300781 51.222656 174.171875 35.445312 176.101562 19.480469 C 177.472656 12.742188 179.082031 6.054688 180.601562 -0.648438 M 195.488281 102.941406 C 193.019531 106.859375 192.335938 111.988281 194.441406 116.210938 C 198.066406 123.609375 205.914062 128.558594 214.097656 129 C 223.824219 129.609375 233.320312 126.105469 241.660156 121.371094 C 232.054688 110.003906 222.574219 98.53125 212.875 87.253906 C 206.578125 91.839844 199.578125 96.078125 195.488281 102.941406 Z M 195.488281 102.941406 " fill-opacity="1" fill-rule="nonzero"/></g><path fill="#ffffff" d="M 303.984375 -0.648438 L 486.398438 -0.648438 C 482.878906 2.746094 479.464844 6.25 475.976562 9.664062 C 460.828125 9.648438 445.6875 9.632812 430.546875 9.671875 C 428.644531 11.574219 426.71875 13.445312 424.824219 15.355469 C 439.980469 15.371094 455.136719 15.339844 470.292969 15.371094 C 467.328125 18.042969 464.820312 21.429688 461.585938 23.667969 C 446.382812 23.824219 431.175781 23.71875 415.972656 23.710938 C 413.996094 25.582031 412.058594 27.5 410.148438 29.433594 C 425.46875 29.460938 440.789062 29.433594 456.109375 29.449219 C 451.960938 33.617188 447.785156 37.746094 443.605469 41.886719 C 426.878906 41.902344 410.148438 41.921875 393.414062 41.871094 C 383.925781 79.550781 374.625 117.273438 365.175781 154.96875 C 350.507812 154.917969 335.835938 155.058594 321.175781 154.894531 C 330.035156 117.109375 339.949219 79.582031 349.261719 41.902344 C 326.417969 41.886719 303.5625 41.914062 280.71875 41.886719 C 288.496094 27.71875 296.136719 13.476562 303.984375 -0.648438 Z M 303.984375 -0.648438 " fill-opacity="1" fill-rule="nonzero"/><g clip-path="url(#8927de9de7)"><path fill="#ffffff" d="M 666.433594 102.832031 C 670.097656 97.066406 676.835938 93.957031 683.449219 93.132812 C 689.820312 92.429688 696.550781 92.929688 702.347656 95.890625 C 700.984375 99.527344 699.59375 103.152344 698.265625 106.800781 C 693.257812 104.523438 687.386719 103.152344 682.011719 104.914062 C 678.894531 105.855469 676.34375 109.519531 678.035156 112.683594 C 680.019531 115.988281 683.800781 117.492188 686.960938 119.425781 C 691.773438 122.007812 696.550781 125.75 698.066406 131.246094 C 699.636719 137.816406 697.5625 145.304688 692.390625 149.757812 C 687.984375 153.644531 682.113281 155.285156 676.386719 155.855469 L 670.5625 155.855469 C 665.523438 155.34375 660.378906 154.378906 656.058594 151.585938 C 657.515625 147.992188 658.984375 144.40625 660.445312 140.808594 C 665.828125 143.714844 672.140625 145.429688 678.257812 144.308594 C 681.394531 143.714844 684.578125 141.320312 684.632812 137.867188 C 684.871094 134.3125 681.703125 131.988281 678.96875 130.410156 C 674.3125 127.804688 669.289062 125.28125 666.164062 120.773438 C 662.421875 115.515625 663.125 108.117188 666.433594 102.832031 Z M 666.433594 102.832031 " fill-opacity="1" fill-rule="nonzero"/></g><g clip-path="url(#4e4a9ec989)"><path fill="#ffffff" d="M 712.816406 102.800781 C 716.492188 97.035156 723.230469 93.949219 729.84375 93.125 C 736.207031 92.429688 742.917969 92.953125 748.714844 95.882812 C 747.351562 99.519531 745.949219 103.144531 744.632812 106.800781 C 740.050781 104.695312 734.859375 103.476562 729.84375 104.46875 C 727.261719 105.011719 724.59375 106.6875 723.996094 109.414062 C 723.457031 111.449219 724.542969 113.5 726.085938 114.789062 C 729.941406 118.097656 734.914062 119.746094 738.785156 123.042969 C 741.710938 125.453125 744.078125 128.746094 744.707031 132.550781 C 745.628906 138.59375 743.742188 145.191406 739.167969 149.367188 C 734.757812 153.523438 728.683594 155.253906 722.789062 155.855469 L 716.949219 155.855469 C 711.894531 155.34375 706.742188 154.378906 702.40625 151.585938 C 703.875 147.992188 705.34375 144.40625 706.8125 140.808594 C 712.210938 143.730469 718.542969 145.4375 724.675781 144.300781 C 727.777344 143.699219 730.914062 141.320312 730.988281 137.914062 C 731.25 134.378906 728.136719 132.027344 725.410156 130.453125 C 720.753906 127.832031 715.714844 125.324219 712.570312 120.816406 C 708.773438 115.554688 709.476562 108.109375 712.816406 102.800781 Z M 712.816406 102.800781 " fill-opacity="1" fill-rule="nonzero"/></g><path fill="#ffffff" d="M 419.464844 93.84375 C 431.578125 93.84375 443.6875 93.816406 455.804688 93.859375 C 455.046875 97.582031 454.335938 101.304688 453.601562 105.023438 C 445.90625 105.03125 438.214844 105.023438 430.523438 105.023438 C 429.714844 109.382812 428.71875 113.703125 428.074219 118.082031 C 435.308594 117.980469 442.550781 118.070312 449.789062 118.039062 C 449.109375 121.699219 448.398438 125.363281 447.703125 129.023438 C 440.4375 129.054688 433.167969 129.023438 425.894531 129.039062 C 424.96875 133.964844 423.957031 138.871094 423.125 143.8125 C 431.257812 143.738281 439.390625 143.796875 447.523438 143.78125 C 446.824219 147.511719 446.128906 151.242188 445.425781 154.960938 C 432.898438 154.96875 420.371094 154.96875 407.84375 154.960938 C 411.691406 134.585938 415.601562 114.21875 419.464844 93.84375 Z M 419.464844 93.84375 " fill-opacity="1" fill-rule="nonzero"/><path fill="#ffffff" d="M 461.554688 93.835938 C 466.183594 93.84375 470.800781 93.835938 475.429688 93.84375 C 477.722656 101.011719 480.09375 108.167969 481.898438 115.484375 C 482.738281 114.945312 483.121094 114.011719 483.585938 113.171875 C 487.042969 106.523438 491.222656 100.285156 495.070312 93.859375 C 500.3125 93.824219 505.554688 93.84375 510.804688 93.84375 C 503.359375 103.855469 495.902344 113.851562 488.445312 123.84375 C 492.324219 134.226562 496.269531 144.585938 500.164062 154.960938 C 495.492188 154.949219 490.816406 155.007812 486.144531 154.925781 C 483.652344 147.355469 480.964844 139.835938 478.730469 132.183594 C 474.292969 139.792969 469.777344 147.371094 465.230469 154.917969 C 459.945312 155.023438 454.652344 154.941406 449.363281 154.960938 C 456.972656 144.5 464.75 134.160156 472.285156 123.640625 C 468.628906 113.742188 465.132812 103.773438 461.554688 93.835938 Z M 461.554688 93.835938 " fill-opacity="1" fill-rule="nonzero"/><path fill="#ffffff" d="M 517.925781 94.992188 C 525.359375 93.492188 533.082031 92.871094 540.621094 93.890625 C 546.769531 94.742188 553.199219 97.976562 555.65625 104.007812 C 558.863281 112.371094 555.558594 122.53125 548.378906 127.78125 C 541.347656 132.984375 532.070312 133.875 523.601562 132.976562 C 522.199219 140.308594 520.824219 147.640625 519.421875 154.96875 C 515.144531 154.984375 510.871094 154.925781 506.601562 155 C 510.257812 134.976562 514.164062 114.992188 517.925781 94.992188 M 529.074219 104.238281 C 527.929688 110.265625 526.753906 116.292969 525.621094 122.328125 C 530.535156 123.191406 536.171875 122.945312 540.066406 119.445312 C 543.667969 116.375 545.078125 110.25 541.871094 106.433594 C 538.546875 103.101562 533.335938 103.765625 529.074219 104.238281 Z M 529.074219 104.238281 " fill-opacity="1" fill-rule="nonzero"/><path fill="#ffffff" d="M 569.382812 94.992188 C 575.851562 93.65625 582.492188 93.195312 589.082031 93.492188 C 594.8125 93.859375 600.953125 95.238281 605.109375 99.476562 C 609.152344 103.632812 609.527344 110.242188 607.472656 115.441406 C 605.300781 120.882812 600.105469 124.5 594.664062 126.171875 C 597.613281 127.8125 599.394531 130.867188 600.007812 134.117188 C 601.386719 141.011719 601.101562 148.15625 602.914062 154.976562 C 598.414062 154.949219 593.914062 154.984375 589.421875 154.957031 C 588.273438 149.546875 588.066406 144.015625 587.40625 138.542969 C 587.070312 135.914062 586.140625 132.933594 583.585938 131.667969 C 581.035156 130.507812 578.144531 130.957031 575.433594 130.859375 C 573.898438 138.894531 572.394531 146.929688 570.878906 154.960938 C 566.535156 154.984375 562.195312 154.941406 557.859375 154.992188 C 561.617188 134.976562 565.535156 114.992188 569.382812 94.992188 M 580.53125 104.269531 C 579.574219 109.878906 578.382812 115.441406 577.34375 121.035156 C 582.082031 121.050781 587.421875 121.519531 591.34375 118.285156 C 594.925781 115.628906 596.535156 109.59375 593.140625 106.171875 C 589.734375 103.191406 584.695312 103.488281 580.53125 104.269531 Z M 580.53125 104.269531 " fill-opacity="1" fill-rule="nonzero"/><path fill="#ffffff" d="M 622.457031 93.84375 C 634.558594 93.835938 646.667969 93.84375 658.773438 93.84375 C 658.054688 97.574219 657.328125 101.304688 656.597656 105.023438 C 648.898438 105.03125 641.199219 105.023438 633.503906 105.03125 C 632.671875 109.367188 631.808594 113.695312 630.988281 118.03125 C 638.242188 118.046875 645.507812 118.039062 652.777344 118.039062 C 652.09375 121.707031 651.390625 125.371094 650.6875 129.03125 C 643.417969 129.039062 636.152344 129.039062 628.890625 129.03125 C 627.9375 133.945312 626.996094 138.863281 626.074219 143.78125 C 634.214844 143.777344 642.359375 143.777344 650.507812 143.78125 C 649.804688 147.511719 649.121094 151.242188 648.402344 154.96875 C 635.875 154.960938 623.347656 154.96875 610.828125 154.96875 C 614.683594 134.585938 618.585938 114.21875 622.457031 93.84375 Z M 622.457031 93.84375 " fill-opacity="1" fill-rule="nonzero"/></svg>